Coordinates
version=1
nRows=9
nColumns=26
inDegrees=yes

Units are S.I. units (second, meters, Newtons, ...)
If the header above contains a line with 'inDegrees', this indicates whether rotational values are in degrees (yes) or radians (no).

endheader
time	pelvis_tilt	pelvis_list	pelvis_rotation	pelvis_tx	pelvis_ty	pelvis_tz	hip_flexion_r	hip_adduction_r	hip_rotation_r	knee_angle_r	knee_angle_r_beta	ankle_angle_r	subtalar_angle_r	mtp_angle_r	hip_flexion_l	hip_adduction_l	hip_rotation_l	knee_angle_l	knee_angle_l_beta	ankle_angle_l	subtalar_angle_l	mtp_angle_l	lumbar_extension	lumbar_bending	lumbar_rotation
      0.00500000	     -1.13162939	     -1.21743948	     -0.78335353	     -0.17224934	      0.93592115	     -0.54868577	     12.74965429	     -7.48580142	     -3.09844509	     40.24847901	      0.70246848	     23.22293484	      0.00000000	      0.00000000	     14.83585434	     -6.43503228	     -2.86880606	     42.96366312	      0.74985738	     23.50847821	      0.00000000	      0.00000000	    -13.69088235	      1.16217856	      1.70794598
      0.01000000	     -1.28356295	     -1.26106388	     -0.75720379	     -0.17139487	      0.93945778	     -0.54877258	     12.41004970	     -7.39330752	     -3.18982887	     39.23903462	      0.68485035	     22.21916664	      0.00000000	      0.00000000	     14.47427790	     -6.40479339	     -2.91744651	     41.93100012	      0.73183401	     22.74135716	      0.00000000	      0.00000000	    -13.33995795	      1.23209714	      1.70431708
      0.01500000	     -1.44032942	     -1.31170739	     -0.72427459	     -0.17059146	      0.94309833	     -0.54885982	     12.09687603	     -7.29020879	     -3.27604092	     38.25493182	      0.66767452	     21.13090098	      0.00000000	      0.00000000	     14.13468593	     -6.37780169	     -2.94862142	     40.91182441	      0.71404604	     21.89733364	      0.00000000	      0.00000000	    -12.99202841	      1.30551671	      1.70736050
      0.02000000	     -1.59750449	     -1.36280001	     -0.69242700	     -0.16980443	      0.94675049	     -0.54894614	     11.78845888	     -7.18383793	     -3.34870164	     37.27293951	      0.65053552	     20.02529082	      0.00000000	      0.00000000	     13.79900400	     -6.35022343	     -2.97334581	     39.89294469	      0.69626323	     21.02527316	      0.00000000	      0.00000000	    -12.64642171	      1.37967847	      1.71213729
      0.02500000	     -1.75685350	     -1.41475595	     -0.65562419	     -0.16906514	      0.95048293	     -0.54903860	     11.50210617	     -7.07553209	     -3.41222664	     36.31514088	      0.63381878	     18.86496073	      0.00000000	      0.00000000	     13.48151827	     -6.31963279	     -2.97964497	     38.88725289	      0.67871060	     20.08586014	      0.00000000	      0.00000000	    -12.30639726	      1.45403747	      1.71842308
      0.03000000	     -1.91783444	     -1.46852155	     -0.61739409	     -0.16837369	      0.95428047	     -0.54913623	     11.23617473	     -6.96345549	     -3.45749899	     35.38037455	      0.61750403	     17.66802855	      0.00000000	      0.00000000	     13.18557794	     -6.29048794	     -2.97236347	     37.90353613	      0.66154150	     19.08932190	      0.00000000	      0.00000000	    -11.97449661	      1.53036171	      1.73406135
      0.03500000	     -2.07742700	     -1.52172069	     -0.57527259	     -0.16774142	      0.95815101	     -0.54924483	     10.99225604	     -6.85411167	     -3.49146052	     34.47762813	      0.60174813	     16.42866874	      0.00000000	      0.00000000	     12.91229515	     -6.25908410	     -2.94387832	     36.94711070	      0.64484873	     18.02537234	      0.00000000	      0.00000000	    -11.65378031	      1.60832554	      1.74603874
      0.04000000	     -2.23362933	     -1.57309869	     -0.52893344	     -0.16716761	      0.96208288	     -0.54936479	     10.76812181	     -6.74997940	     -3.51465491	     33.60735940	      0.58655907	     15.16133509	      0.00000000	      0.00000000	     12.66214314	     -6.22549838	     -2.89268729	     36.02278115	      0.62871614	     16.90329843	      0.00000000	      0.00000000	    -11.34777073	      1.68613159	      1.75706752
      0.04500000	     -2.38499103	     -1.62000600	     -0.48015798	     -0.16664402	      0.96606111	     -0.54949574	     10.56512343	     -6.65540084	     -3.53154410	     32.77582596	      0.57204608	     13.87118865	      0.00000000	      0.00000000	     12.43536227	     -6.18880362	     -2.82334562	     35.13637792	      0.61324548	     15.73013937	      0.00000000	      0.00000000	    -11.05780439	      1.76061410	      1.76768190
